<svg xmlns="http://www.w3.org/2000/svg" viewBox="0 0 2385.5801 547.2461"><defs><style>.cls-1{fill:#fff;}</style></defs><g id="Camada_2" data-name="Camada 2"><g id="Camada_1-2" data-name="Camada 1"><path class="cls-1" d="M485.3232,271.9434q0,109.6757-70.5048,190.25-62.3028,72-174.9551,75.7265-21.6387.7442-118.999.7461-18.2812,0-55.0225-1.1191-36.747-1.1192-55.0234-1.1192-10.8238,0-10.8184-8.58,0-41.03,3.1709-123.2891Q6.3363,322.3047,6.3418,281.27q0-42.8936-3.1709-128.5117Q-.0034,67.1465,0,24.6191q0-7.8339,10.8184-9.3261,26.4828-2.98,86.9179-2.9844,114.8935,0,148.8418,3.3574,88.4107,8.9532,138.3975,44.7656Q431.978,94.0059,459.21,154.4375,485.3178,211.5107,485.3232,271.9434Zm-142.874,0q0-63.0352-37.6767-102.9571-38.0494-41.4081-100.7207-41.4082-57.45,0-57.4473,15.2949,0,22.0137-.7461,66.2149-.7515,44.2031-.7461,66.2129,0,21.6387.7461,65.0957.7426,43.4619.7461,65.4687,0,16.0429,59.6855,16.041,64.5338,0,101.4668-42.9Q342.4488,338.3505,342.4492,271.9434Z"/><path class="cls-1" d="M899.3955,352.8926q0,85.0547-52.0391,138.0254-52.0385,52.9746-136.7187,52.9707-82.0708,0-135.04-52.2246-52.9748-52.2217-52.9707-134.295,0-86.5371,50.7324-140.4472,50.7274-53.9034,137.2783-53.9043,84.3,0,136.5322,52.7851Q899.3917,268.5928,899.3955,352.8926Zm-122.3564,0A80.3455,80.3455,0,0,0,758.76,300.8555q-18.2812-22.5675-47.376-22.57-29.4726,0-48.4951,23.1289-17.9049,21.6386-17.9053,51.4785,0,30.2167,17.9053,51.8535,19.0254,23.1329,48.4951,23.1289,29.0976,0,48.1221-23.1289Q777.0357,383.1162,777.0391,352.8926Z"/><path class="cls-1" d="M1328.39,197.3359q0,27.6123-2.6113,82.8145-2.6146,55.2129-2.6113,82.8144,0,26.8594,1.8652,80.5762,1.8618,53.7188,1.8653,80.2031,0,10.0723-9.3262,12.6836-14.1812,3.7266-60.06,3.7305-40.6641,0-56.7012-2.2383-7.0912-1.1191-8.9531-8.9531-1.1192-11.1914-2.2383-22.3809-1.87-17.1562-5.2226-17.16,5.2192,0-37.6768,25.3672-42.9023,25.371-77.9648,25.3652-98.8579,0-117.1338-89.1562-8.21-41.4054-8.207-120.1172,0-85.0548,13.8027-134.295,4.1-15.29,15.2939-15.2949,17.1549,0,52.2256.3731,35.06.3779,52.2246.373,11.5591,0,11.5645,9.6992a60.9359,60.9359,0,0,1-.7461,7.834,673.7263,673.7263,0,0,0-7.834,102.959q0,64.9073,4.1035,88.7832,6.7149,41.0391,48.8682,41.0332,16.4106,0,35.626-14.5469,19.2071-14.5488,19.957-30.2168.7427-13.7958.7461-187.2656,0-12.31,1.8652-14.5488,2.2383-3.7236,13.43-3.7305,18.2726,0,55.0225.3731,36.74.3778,55.0234.373,11.1915,0,13.0567,5.5957A39.9647,39.9647,0,0,1,1328.39,197.3359Z"/><path class="cls-1" d="M1794.3145,354.0117q0,78.34-44.7647,130.9375-47.7554,55.9542-124.5947,55.9551-55.957,0-90.2754-32.08-2.6148-2.2383-4.4766-2.2383-3.7338,0-6.9013,13.8008-3.1744,13.8076-7.6475,15.2949-6.3471,1.8633-106.3154,1.8653-23.502,0-23.502-8.58a48.0777,48.0777,0,0,1,.7461-5.5957q7.4575-59.3115,7.4609-226.0606,0-159.2812-11.19-277.1679l-.373-4.1035q0-5.9619,11.5634-6.7149,8.2017-.3661,64.9092-5.5937Q1498.8642.0039,1523.8613,0q7.0826,0,7.0879,12.3086,0,14.5488-1.8652,38.4238-2.2383,29.4728-2.6113,38.7969-1.8707,36.9286-1.8653,100.7187,0,11.5694,5.9688,11.5645,2.981,0,5.5957-2.9844,33.5727-35.81,88.0371-35.8105,81.6943,0,127.5791,55.582Q1794.314,270.08,1794.3145,354.0117Zm-135.04-4.1035q0-30.9581-19.0254-52.41-19.0239-21.4482-49.6142-21.4511-31.3345,0-49.4268,21.4511-18.0981,21.4542-18.0928,53.1563,0,32.8331,17.5332,52.9727,18.649,21.2636,50.7325,21.2636,31.7035,0,50.36-22.01Q1659.271,382.37,1659.2744,349.9082Z"/><path class="cls-1" d="M1975.6113,311.8594q0,101.8389.7461,156.3027,0,8.5869,1.1192,29.4707,1.1191,19.0254,1.1191,29.4688,0,7.8339-9.3262,9.3261-16.7871,2.9825-60.4326,2.9844-44.7642,0-57.0752-2.9844-8.2089-1.86-9.3252-10.0722V510.3164q0-33.1992.7461-99.416.7426-66.2109.7461-99.041,0-156.6768.3731-142.8731-1.1192-82.4385-9.3262-142.1289a37.7246,37.7246,0,0,1-.7461-6.3418q0-8.2,9.6992-8.207h133.1748q9.3193,0,8.58,7.834l-.3731,6.7148Q1975.6045,188.0108,1975.6113,311.8594Z"/><path class="cls-1" d="M2385.58,333.8691q0,37.6816-24.2481,42.8985-4.1088.7528-77.2187,8.207-44.0215,4.8516-131.31,11.5645,5.2192,24.2518,31.708,36.93,21.6314,10.45,49.2422,10.4453,33.1963,0,66.7734-17.9043,14.1725-8.9532,28.3506-17.9063,7.8341,3.7324,26.3,38.0488,18.4644,34.3272,18.4649,43.6465,0,2.6133-5.5957,8.58-45.5157,48.873-141.3809,48.8672-88.7871,0-143.2471-51.8516-55.9556-52.6-55.956-140.6367,0-85.7959,49.9873-140.6348,51.4789-56.6982,136.5322-56.7011,71.6222,0,121.61,52.2246Q2385.5776,261.877,2385.58,333.8691Zm-130.5635-22.7558q0-23.127-16.4141-40.6621-16.4195-17.5284-39.1689-17.5313-23.502,0-38.7959,19.77-14.1812,18.2841-14.1748,42.9,0,10.0723,10.4443,10.0723,27.6021,0,85.7989-8.58Q2255.0166,315.2187,2255.0166,311.1133Z"/></g></g></svg>